<svg width="32" height="32" viewBox="0 0 32 32" fill="none" xmlns="http://www.w3.org/2000/svg">
<path d="M16.0001 22.0001C15.8687 22.0002 15.7387 21.9744 15.6173 21.9241C15.496 21.8738 15.3858 21.8001 15.2931 21.7071L5.29306 11.7071C4.90231 11.3163 4.90231 10.6836 5.29306 10.2931C5.68381 9.90256 6.31656 9.90231 6.70706 10.2931L16.0001 19.5861L25.2931 10.2931C25.6838 9.90231 26.3166 9.90231 26.7071 10.2931C27.0976 10.6838 27.0978 11.3166 26.7071 11.7071L16.7071 21.7071C16.6143 21.8001 16.5041 21.8738 16.3828 21.9241C16.2615 21.9744 16.1314 22.0002 16.0001 22.0001Z" fill="black"/>
</svg>
